<svg width="54" height="54" viewBox="0 0 54 54" fill="none" xmlns="http://www.w3.org/2000/svg">
<path d="M27 54C41.8814 54 54 41.8814 54 27C54 12.1186 41.8814 0 27 0C12.1186 0 0 12.1186 0 27C0 41.8814 12.1186 54 27 54ZM27 2.51163C40.5 2.51163 51.4884 13.5 51.4884 27C51.4884 40.5 40.5 51.4884 27 51.4884C13.5 51.4884 2.51163 40.5 2.51163 27C2.51163 13.5 13.5 2.51163 27 2.51163Z" fill="#7BE0BD"/>
<g transform="translate(12,16)">
    <path d="M10.7888 20.9837C11.0398 21.2347 11.3538 21.3604 11.6678 21.3604C11.9819 21.3604 12.2959 21.2347 12.5469 20.9837L30.6934 2.8372C31.1958 2.33482 31.1958 1.5815 30.6934 1.07906C30.191 0.576683 29.4377 0.576683 28.9352 1.07906L11.6678 18.2837L3.06559 9.68105C2.56321 9.17867 1.80989 9.17867 1.30745 9.68105C0.805069 10.1834 0.805069 10.9368 1.30745 11.4392L10.7888 20.9837Z" fill="#7BE0BD"/>
</g>
</svg>
