<svg width="14" height="7" viewBox="0 0 14 7" fill="none" xmlns="http://www.w3.org/2000/svg">
<path fill-rule="evenodd" clip-rule="evenodd" d="M10.507 5.12342e-05H8.58354C8.35386 5.12342e-05 8.18164 0.186677 8.18164 0.401948C8.18164 0.617209 8.36827 0.803845 8.58354 0.803845H10.5069C11.7843 0.803845 12.8321 1.85162 12.8321 3.12908C12.8321 4.40654 11.7843 5.45431 10.5069 5.45431H8.58354C8.35386 5.45431 8.18164 5.64094 8.18164 5.85621C8.18164 6.08589 8.36827 6.25811 8.58354 6.25811H10.5069C12.2293 6.25811 13.6359 4.85149 13.6359 3.12905C13.636 1.40666 12.2294 0 10.5071 0L10.507 5.12342e-05ZM5.05249 5.45436H3.12905C1.8516 5.45436 0.803819 4.40658 0.803819 3.12913C0.803819 1.85167 1.8516 0.803893 3.12905 0.803893H5.05239C5.28207 0.803893 5.45429 0.617267 5.45429 0.401996C5.45429 0.186735 5.26766 9.91821e-05 5.05239 9.91821e-05H3.12905C1.40666 9.91821e-05 0 1.40671 0 3.12915C0 4.85159 1.40661 6.25821 3.12905 6.25821H5.05239C5.28207 6.25821 5.45429 6.07158 5.45429 5.85631C5.45439 5.62673 5.28208 5.45441 5.05249 5.45441V5.45436ZM3.73198 3.531C3.5167 3.531 3.33008 3.35879 3.33008 3.12911C3.33008 2.89942 3.5023 2.72721 3.73198 2.72721H9.90396C10.1192 2.72721 10.3059 2.89943 10.3059 3.12911C10.3059 3.34438 10.1336 3.531 9.90396 3.531H3.73198Z" fill="white"/>
</svg>
