<svg id="Outdated" xmlns="http://www.w3.org/2000/svg" viewBox="0 0 1024 1024"><defs><style>.cls-1{fill:#202020;}.cls-2{fill:#fff;}.cls-3{fill:#f9f453;}</style></defs><title>outdated</title><g id="Background"><rect class="cls-1" width="1024" height="1024" rx="96" ry="96"/></g><g id="Rings"><path class="cls-2" d="M510,325C261,325,60,408,60,510S261,695,510,695s450-83,450-185S759,325,510,325Zm0,330c-225,0-407-65-407-145S285,365,510,365s408,65,408,145S735,655,510,655Z"/><path class="cls-2" d="M670,417C546,202,373,69,285,120s-59,267,65,482S647,951,735,900,794,633,670,417ZM384,583C272,388,237,197,306,157s217,86,329,280,148,385,78,425S497,777,384,583Z"/><g id="BLOCKER"><rect class="cls-1" x="564" y="572" width="315" height="397.12" transform="translate(652 -283) rotate(39)"/><rect class="cls-1" x="685" y="369" width="283" height="360.81" transform="translate(255 -262) rotate(21)"/></g><path class="cls-2" d="M670,603c124-215,153-431,65-482S474,202,350,417,197,849,285,900,546,818,670,603ZM384,437C497,243,644,117,714,157s34,231-78,425S376,903,306,863,272,632,384,437Z"/></g><g id="Circle"><circle class="cls-2" cx="512" cy="512" r="80"/></g><g id="Shield"><path class="cls-3" d="M960,887a24,24,0,0,0-5-15h0L807,605h0v-2h0a25,25,0,0,0-43,3h0L613,876h0a24,24,0,0,0-3,11,25,25,0,0,0,24,25H936A25,25,0,0,0,960,887ZM810,848a15,15,0,0,1-15,15H775a15,15,0,0,1-15-15V828a15,15,0,0,1,15-15h20a15,15,0,0,1,15,15Zm0-74a15,15,0,0,1-15,15H775a15,15,0,0,1-15-15V705a15,15,0,0,1,15-15h20a15,15,0,0,1,15,15Z"/></g></svg>