<svg id="Layer_1" data-name="Layer 1" xmlns="http://www.w3.org/2000/svg" viewBox="0 0 823.85795 733"><title>large-logo</title><g opacity="0.05"><path d="M677.3796,237.5782v-.00013q-13.15347-4.51184-26.52168-8.35682,2.2162-9.00546,4.09815-18.08832c20.07545-97.45293,6.9495-175.96071-37.87563-201.8043C574.10386-15.45755,503.81433,10.386,432.82482,72.16188q-10.49272,9.15182-20.513,18.8248-6.70815-6.42994-13.651-12.60818c-74.39859-66.06005-148.97227-93.89436-193.75-67.97423-42.93648,24.85548-55.65406,98.66342-37.5803,191.01912q2.69729,13.71891,6.08893,27.28742c-10.55176,2.99712-20.74263,6.19108-30.49228,9.58925C55.70506,268.70848,0,316.37033,0,365.80411c0,51.06,59.796,102.27313,150.64951,133.32334q11.05033,3.759,22.27764,6.96393-3.64625,14.61321-6.47177,29.4132c-17.23148,90.75134-3.77376,162.80916,39.04973,187.51155,44.23076,25.50438,118.46536-.71107,190.75293-63.898q8.57022-7.49254,17.19138-15.84583,10.8498,10.46823,22.27032,20.3197c70.01968,60.25168,139.17161,84.58221,181.9586,59.81425,44.19066-25.581,58.549-102.99126,39.90285-197.17376q-2.13293-10.79053-4.94043-22.02241,7.82091-2.308,15.32089-4.78369C762.41022,468.13563,823.858,417.546,823.858,365.80425,823.858,316.19178,766.35894,268.20914,677.3796,237.5782ZM455.93017,98.71275c60.82417-52.934,117.67049-73.83348,143.5724-58.89543h.00007c27.58633,15.9116,38.31685,80.072,20.98329,164.213q-1.70415,8.22186-3.70447,16.37829A843.11184,843.11184,0,0,0,506.62552,203.0058c-22.63859-32.23516-46.09393-61.54615-69.6405-86.91573Q446.24028,107.16747,455.93017,98.71275ZM243.25691,408.03318q11.17562,21.58674,23.35692,42.63018,12.4265,21.46008,25.86547,42.30946a749.41279,749.41279,0,0,1-75.92641-12.20726C223.8269,457.27737,232.789,432.86312,243.25691,408.03318Zm-.0401-82.7737c-10.24913-24.30852-19.018-48.20874-26.17895-71.28855,23.50634-5.26129,48.57329-9.56006,74.69032-12.82331q-13.1139,20.4542-25.25653,41.50721Q254.34864,303.68289,243.21681,325.25948ZM261.9249,366.65q16.266-33.856,35.04269-66.41735v.00731q18.75838-32.54479,39.94668-63.59526c24.50177-1.85227,49.62338-2.82209,75.01843-2.82209,25.50817,0,50.66256.97714,75.15708,2.844q20.95959,30.97974,39.695,63.38007,18.82881,32.46544,35.51663,66.10381-16.50682,33.96338-35.39993,66.68714l-.00366.00007q-18.71978,32.51932-39.52367,63.77022c-24.44345,1.7466-49.70364,2.64707-75.44509,2.64707-25.63571,0-50.575-.79833-74.5919-2.35527q-21.33273-31.16146-40.26388-63.86883Q278.245,400.51974,261.9249,366.65Zm295.46159,83.76919q12.43081-21.55706,23.8929-43.65115h.00007a747.44376,747.44376,0,0,1,27.66653,72.4735,746.90393,746.90393,0,0,1-76.85248,13.10041Q545.15579,471.63431,557.38649,450.41918ZM580.944,325.28495Q569.52351,303.615,557.24445,282.4141v.00007q-12.081-20.868-25.05238-41.20092c26.2884,3.31791,51.472,7.72974,75.12057,13.1296A750.753,750.753,0,0,1,580.944,325.28495ZM412.32291,141.25908A752.67935,752.67935,0,0,1,460.805,199.78624q-48.65887-2.29927-97.37267-.02188C379.43872,178.65711,395.83523,159.04842,412.32291,141.25908ZM222.5434,40.86376C250.10793,24.9084,311.05246,47.66,375.2895,104.696c4.10546,3.64609,8.22921,7.46354,12.36021,11.41226a843.39474,843.39474,0,0,0-70.18008,86.8501A859.96423,859.96423,0,0,0,207.53247,220.044q-3.15066-12.6187-5.66241-25.38408v.00359C186.38506,115.5322,196.667,55.84191,222.5434,40.86376ZM182.3707,472.19q-10.24566-2.93259-20.33792-6.3661c-40.17271-13.73122-73.34857-31.57522-96.0893-51.04533-20.43275-17.50133-30.75117-34.875-30.75117-48.97441,0-29.99646,44.72664-68.26231,119.3222-94.26995q14.04424-4.87509,28.35573-8.922A844.0802,844.0802,0,0,0,223.02473,366.661,856.90089,856.90089,0,0,0,182.3707,472.19ZM373.09815,632.61472c-31.96537,27.94364-63.99632,47.76386-92.22443,57.736l-.00366-.00013c-25.36593,8.95844-45.56892,9.21367-57.7797,2.17319-25.98942-14.9856-36.78916-72.84909-22.05526-150.45626q2.62813-13.75741,6.01605-27.35312c33.74463,7.46354,71.0989,12.83435,111.02376,16.07206a856.43741,856.43741,0,0,0,70.71972,87.37518Q381.12547,625.58012,373.09815,632.61472Zm40.19824-39.779c-16.68093-18.00074-33.318-37.90848-49.56871-59.322q23.65952.92986,48.20142.93338,25.19087,0,49.73277-1.10475A748.43012,748.43012,0,0,1,413.2964,592.83569Zm213.71969,48.96723c-4.90764,26.44873-14.774,44.0814-26.97381,51.14381-25.96389,15.02922-81.49033-4.50652-141.36655-56.0333q-10.29837-8.85989-20.71716-18.88671c23.21474-25.3914,46.41485-54.91026,69.05717-87.68879,39.83-3.53291,77.45769-9.31215,111.58149-17.19849q2.51586,10.17258,4.45924,19.92955v-.00013C631.3003,574.71465,632.47794,612.3679,627.01609,641.80291Zm29.87976-175.78216h-.00359c-4.50293,1.49124-9.12622,2.93148-13.837,4.3279-10.42787-33.00808-24.50177-68.10909-41.71868-104.36958a825.689,825.689,0,0,0,40.09617-102.84915c8.42612,2.44291,16.60791,5.01338,24.4908,7.72974,76.24,26.241,122.74232,65.0464,122.74232,94.94445C788.6659,397.65278,738.44091,438.99953,656.89585,466.02076Z" fill="#fff"/><path d="M411.929,292.23677a73.56917,73.56917,0,1,1-73.56735,73.56735A73.56713,73.56713,0,0,1,411.929,292.23677" fill="#fff"/></g></svg>