<?xml version="1.0" encoding="utf-8"?>
<!-- Generator: Adobe Illustrator 19.1.0, SVG Export Plug-In . SVG Version: 6.00 Build 0)  -->
<svg version="1.1" id="Layer_2" xmlns="http://www.w3.org/2000/svg" xmlns:xlink="http://www.w3.org/1999/xlink" x="0px" y="0px"
	 viewBox="50 -20 600 600" style="enable-background:new 50 -20 600 600;" xml:space="preserve">
<style type="text/css">
	.st0{fill:#00D8FF;}
	.st1{fill:none;stroke:#00D8FF;stroke-width:24;stroke-miterlimit:10;}
</style>
<circle class="st0" cx="349.5" cy="279.6" r="50.2"/>
<path class="st1" d="M349.5,177.6c67.4,0,129.9,9.7,177.1,25.9c56.8,19.6,91.8,49.2,91.8,76.1c0,28-37,59.5-98.1,79.7
	c-46.2,15.3-106.9,23.3-170.8,23.3c-65.6,0-127.6-7.5-174.3-23.4c-59-20.2-94.6-52.1-94.6-79.6c0-26.6,33.4-56.1,89.4-75.6
	C217.4,187.5,281.5,177.6,349.5,177.6z"/>
<path class="st1" d="M260.7,228.9c33.6-58.3,73.3-107.7,110.9-140.5C417,49,460.2,33.5,483.4,46.9c24.2,14,33,61.8,20.1,124.8
	c-9.8,47.6-33.2,104.2-65.2,159.6c-32.7,56.8-70.2,106.8-107.4,139.3c-47,41.1-92.4,55.9-116.2,42.2
	c-23.1-13.3-31.9-56.9-20.8-115.2C203.3,348.3,226.8,287.8,260.7,228.9z"/>
<path class="st1" d="M260.8,331.5c-33.7-58.3-56.7-117.3-66.3-166.3c-11.5-59-3.4-104.1,19.9-117.6c24.2-14,70.1,2.2,118.1,44.9
	c36.4,32.3,73.7,80.8,105.7,136.2c32.8,56.7,57.5,114.2,67,162.6c12.1,61.2,2.3,108-21.5,121.7c-23.1,13.3-65.2-0.8-110.2-39.5
	C335.6,440.9,294.9,390.3,260.8,331.5z"/>
</svg>
