<svg width="54" height="54" viewBox="0 0 54 54" fill="none" xmlns="http://www.w3.org/2000/svg">
<path fill-rule="evenodd" clip-rule="evenodd" d="M54 27C54 41.8814 41.8814 54 27 54C12.1186 54 0 41.8814 0 27C0 12.1186 12.1186 0 27 0C41.8814 0 54 12.1186 54 27ZM40.7556 6.75103C36.8318 4.07664 32.0948 2.51163 27 2.51163C13.5 2.51163 2.51163 13.5 2.51163 27C2.51163 35.4641 6.83106 42.9409 13.3808 47.3412L23.2602 32.6924C22.279 33.1394 21.3758 33.7638 20.5905 34.5491L19.313 33.2715C20.8594 31.7249 22.7882 30.6988 24.8862 30.2815L29.1201 24.0037C24.0698 23.3916 18.7973 25.0196 14.9296 28.8877L13.6521 27.6102C18.1583 23.1043 24.3896 21.3486 30.24 22.3431L33.9016 16.9138C25.4471 14.5219 15.9723 16.6467 9.32976 23.2881L8.05225 22.0103C15.3215 14.741 25.7561 12.5185 34.9613 15.3425L40.7556 6.75103ZM42.3627 7.94493C47.9246 12.4383 51.4884 19.3119 51.4884 27C51.4884 40.5 40.5 51.4884 27 51.4884C22.6789 51.4884 18.615 50.3626 15.0865 48.3889L26.1962 31.9159C26.4757 31.8904 26.7579 31.8775 27.042 31.8775C29.4792 31.8775 31.7705 32.8257 33.4935 34.5491L34.7704 33.2715C32.7996 31.3002 30.208 30.1749 27.4363 30.0772L31.2634 24.4025C34.1568 25.1334 36.8951 26.6284 39.1543 28.8877L40.431 27.6102C38.0962 25.2754 35.2982 23.679 32.33 22.8211L35.8766 17.5623C39.1164 18.7778 42.1531 20.6864 44.755 23.2881L46.0326 22.0103C43.3502 19.3281 40.2368 17.333 36.9134 16.0249L42.3627 7.94493ZM24.1783 38.1375L27.0415 41L29.9047 38.1368C28.3231 36.5568 25.7603 36.5568 24.1783 38.1375Z" fill="#FF5F49"/>
</svg>
