<svg id="Development" xmlns="http://www.w3.org/2000/svg" viewBox="0 0 1024 1024"><defs><style>.cls-1{fill:#d94a38;}.cls-2{fill:#fff;}.cls-3{fill:#231f20;}.cls-4{font-size:12px;font-family:MyriadPro-Regular, Myriad Pro;}</style></defs><title>development</title><g id="Background"><rect class="cls-1" width="1024" height="1024" rx="96" ry="96"/></g><g id="Rings"><g id="Ring-2" data-name="Ring"><path class="cls-2" d="M959,509c0-62-74-117-189-150,27-115,17-207-37-238s-139,6-224,88c-86-81-171-118-224-87s-64,123-36,239C135,394,61,449,61,511s74,117,189,150c-27,115-17,207,37,238s139-6,224-88c86,81,171,118,224,87s64-123,36-239C885,626,959,571,959,509ZM713,157c40,23,45,97,21,193a900,900,0,0,0-121-19,900,900,0,0,0-78-94C606,166,673,133,713,157ZM635,583c-14,24-28,47-43,69-27,2-54,3-83,3l-81-3c-15-22-30-46-44-70s-27-48-38-72c12-24,24-49,39-73s28-47,43-69c27-2,54-3,83-3l81,3c15,22,30,46,44,70s27,48,38,72C662,534,649,558,635,583Zm60-27c11,26,21,52,29,77-25,6-52,10-81,14l26-44ZM511,757c-17-19-35-40-52-63H563C546,716,528,738,511,757ZM378,647c-29-3-56-8-81-13,8-25,17-50,28-77l25,45ZM325,464c-11-26-21-52-29-77,25-6,52-10,81-14l-26,44ZM509,263c17,19,35,40,52,63H457C474,304,492,282,509,263ZM670,418l-28-45c29,3,56,8,81,13-8,25-17,50-28,77ZM305,158c40-23,106,9,177,78a900,900,0,0,0-77,95,900,900,0,0,0-120,20C260,255,265,181,305,158ZM102,511c0-46,61-88,156-114a900,900,0,0,0,44,114,900,900,0,0,0-43,114C164,599,102,558,102,511ZM307,863c-40-23-45-97-21-193a900,900,0,0,0,121,19,900,900,0,0,0,78,94C414,854,347,887,307,863Zm408-1c-40,23-106-9-177-78a900,900,0,0,0,77-95,900,900,0,0,0,120-20C760,765,755,839,715,862Zm46-239a900,900,0,0,0-44-114,900,900,0,0,0,43-114c96,26,157,67,157,114S856,597,761,623Z"/></g></g><g id="Ring_Blockers" data-name="Ring Blockers"><circle class="cls-1" cx="417" cy="672" r="45"/><circle class="cls-1" cx="699" cy="513" r="45"/><circle class="cls-1" cx="797" cy="634" r="45"/><circle class="cls-1" cx="479" cy="818" r="45"/><g id="Layer_14" data-name="Layer 14"><rect class="cls-1" x="420" y="621" width="377" height="188"/><rect class="cls-1" x="500" y="530" width="312" height="405"/></g></g><g id="Bug"><g id="Legs"><path class="cls-3" d="M702,496a17,17,0,0,0-21,13l-19,78,34,8,19-78A17,17,0,0,0,702,496Z"/><text class="cls-4" transform="translate(512 512)">780</text><text class="cls-4" transform="translate(512 512)">780</text><path class="cls-3" d="M813,626a17,17,0,0,0-23-9l-73,32,14,32,73-32A17,17,0,0,0,813,626Z"/><path class="cls-3" d="M834,756l-77-20-9,34,77,20a18,18,0,0,0,9-34Z"/><path class="cls-3" d="M425,656a17,17,0,1,0-10,33l76,23,10-33Z"/><path class="cls-3" d="M532,756l-64,48a18,18,0,1,0,21,28l64-48Z"/><path class="cls-3" d="M584,836l-21,77a17,17,0,1,0,34,9l21-77Z"/></g><g id="Body"><path class="cls-3" d="M762,690h0l-51-92h0A125,125,0,0,0,492,721h0l51,92h0A125,125,0,0,0,762,690Z"/></g><g id="Line"><path class="cls-1" d="M613,649h0a17,17,0,0,0-30,18h0L711,887l30-18Z"/></g><g id="Head_Ring" data-name="Head Ring"><circle class="cls-1" cx="511" cy="509" r="113"/></g><g id="Head"><circle class="cls-3" cx="512" cy="512" r="80"/></g></g></svg>