<svg width="584" height="484" viewBox="0 0 584 484" fill="none" xmlns="http://www.w3.org/2000/svg">
<g opacity="0.1">
<path d="M534.882 178.105V25.6737C534.882 17.0606 527.903 10.0813 519.29 10.0813H422.77C414.073 10.0813 407.03 17.1303 407.03 25.8209C407.03 34.6313 399.889 41.7732 391.079 41.7732H338.583" stroke="#7C7C7C" stroke-width="2"/>
</g>
<g opacity="0.1">
<path d="M297.971 43.2488H54.1898" stroke="#7C7C7C" stroke-width="2"/>
</g>
<g opacity="0.1">
<path d="M53.2247 63.0033H10.2435V20.0144H53.2247V63.0033Z" stroke="#7C7C7C" stroke-width="2" stroke-linecap="round" stroke-linejoin="round"/>
</g>
<g opacity="0.1">
<path d="M1 35.6624V71.8622H40.5937" stroke="#7C7C7C" stroke-width="2" stroke-linecap="round" stroke-linejoin="round"/>
</g>
<g opacity="0.1">
<path d="M40.2161 41.5078H23.2504" stroke="#7C7C7C" stroke-width="2" stroke-linecap="round" stroke-linejoin="round"/>
</g>
<g opacity="0.1">
<path d="M31.7333 49.9891V33.0234" stroke="#7C7C7C" stroke-width="2" stroke-linecap="round" stroke-linejoin="round"/>
</g>
<g opacity="0.1">
<path d="M318.275 29.3155L298.675 19.5129L285.604 26.0484L304.118 36.9364L318.275 29.3155Z" stroke="#7C7C7C" stroke-width="2" stroke-linecap="round" stroke-linejoin="round"/>
</g>
<g opacity="0.1">
<path d="M318.458 29.6733L338.057 19.8706L351.129 26.4062L332.613 37.2941L318.458 29.6733Z" stroke="#7C7C7C" stroke-width="2" stroke-linecap="round" stroke-linejoin="round"/>
</g>
<g opacity="0.1">
<path d="M318.277 10.8033L309.564 1L289.958 9.71174L298.669 19.5151L318.277 10.8033Z" stroke="#7C7C7C" stroke-width="2" stroke-linecap="round" stroke-linejoin="round"/>
</g>
<g opacity="0.1">
<path d="M318.43 11.3358L327.143 1.53247L346.742 10.2442L338.03 20.0476L318.43 11.3358Z" stroke="#7C7C7C" stroke-width="2" stroke-linecap="round" stroke-linejoin="round"/>
</g>
<g opacity="0.1">
<path d="M317.57 59.8392L298.675 51.0922V34.7603" stroke="#7C7C7C" stroke-width="2" stroke-linecap="round" stroke-linejoin="round"/>
</g>
<g opacity="0.1">
<path d="M318.277 31.4927V59.804L337.876 51.0923V34.7604" stroke="#7C7C7C" stroke-width="2" stroke-linecap="round" stroke-linejoin="round"/>
</g>
<g opacity="0.1">
<path d="M445.061 425.242V312.906C445.061 291.517 462.399 274.177 483.788 274.177H499.239C520.55 274.177 537.834 256.902 537.834 235.584" stroke="#7C7C7C" stroke-width="2"/>
</g>
<g opacity="0.1">
<path d="M515 235.329H558.432V178.77H515V235.329Z" stroke="#7C7C7C" stroke-width="2" stroke-linecap="round" stroke-linejoin="round"/>
</g>
<g opacity="0.1">
<path d="M564.995 184.325H582.165V228.764H564.995" stroke="#7C7C7C" stroke-width="2" stroke-linecap="round" stroke-linejoin="round"/>
</g>
<g opacity="0.1">
<path d="M567.015 194.425H575.093" stroke="#7C7C7C" stroke-width="2" stroke-linecap="round" stroke-linejoin="round"/>
</g>
<g opacity="0.1">
<path d="M567.015 206.544H575.093" stroke="#7C7C7C" stroke-width="2" stroke-linecap="round" stroke-linejoin="round"/>
</g>
<g opacity="0.1">
<path d="M567.015 218.664H575.093" stroke="#7C7C7C" stroke-width="2" stroke-linecap="round" stroke-linejoin="round"/>
</g>
<g opacity="0.1">
<path d="M532.414 214.513V196.871H538.133C540.295 196.871 541.71 196.963 542.365 197.139C543.372 197.399 544.224 197.977 544.907 198.864C545.583 199.752 545.929 200.892 545.929 202.293C545.929 203.378 545.732 204.294 545.338 205.027C544.943 205.766 544.443 206.344 543.837 206.766C543.231 207.189 542.619 207.47 541.992 207.604C541.14 207.773 539.908 207.858 538.295 207.858H535.978V214.513H532.414ZM535.976 199.855V204.862H537.927C539.328 204.862 540.265 204.77 540.744 204.58C541.216 204.397 541.589 204.108 541.856 203.714C542.124 203.326 542.257 202.869 542.257 202.348C542.257 201.707 542.067 201.171 541.694 200.756C541.314 200.34 540.835 200.08 540.258 199.974C539.835 199.897 538.983 199.855 537.694 199.855H535.976Z" fill="#6C6C6C"/>
</g>
<g opacity="0.1">
<path d="M424 482.23H467.432V425.671H424V482.23Z" stroke="#7C7C7C" stroke-width="2" stroke-linecap="round" stroke-linejoin="round"/>
</g>
<g opacity="0.1">
<path d="M473.994 431.226H491.164V475.665H473.994" stroke="#7C7C7C" stroke-width="2" stroke-linecap="round" stroke-linejoin="round"/>
</g>
<g opacity="0.1">
<path d="M476.014 441.326H484.092" stroke="#7C7C7C" stroke-width="2" stroke-linecap="round" stroke-linejoin="round"/>
</g>
<g opacity="0.1">
<path d="M476.014 453.445H484.092" stroke="#7C7C7C" stroke-width="2" stroke-linecap="round" stroke-linejoin="round"/>
</g>
<g opacity="0.1">
<path d="M476.014 465.564H484.092" stroke="#7C7C7C" stroke-width="2" stroke-linecap="round" stroke-linejoin="round"/>
</g>
<g opacity="0.1">
<path d="M438.563 462.028L444.374 453.161L439.106 445.035H443.12L446.529 450.493L449.867 445.035H453.839L448.557 453.289L454.367 462.028H450.227L446.459 456.154L442.677 462.028H438.563Z" fill="#6F6F6F"/>
</g>
</svg>
