<svg width="157" height="28" viewBox="0 0 157 28" fill="none" xmlns="http://www.w3.org/2000/svg">
<path d="M14.3795 27.7029C10.6073 27.7029 7.07603 26.3918 4.43604 24.0112C1.787 21.6224 0.212264 18.3184 0.00157029 14.7077C-0.0280028 14.2002 0.363685 13.765 0.876456 13.7357C1.39151 13.705 1.82901 14.0941 1.85859 14.6016C2.04086 17.7291 3.40109 20.5877 5.68864 22.6504C7.98532 24.7215 11.0717 25.8619 14.3793 25.8619C18.156 25.8619 21.4468 24.3615 23.5768 21.7071C23.6464 21.6206 23.6242 21.4927 23.5307 21.4321L19.2139 18.6311C19.0971 18.5553 18.9424 18.5618 18.8367 18.6519C17.4734 19.8122 15.3112 20.6338 13.5656 20.6338C7.79416 20.6338 3.33395 16.304 3.19066 10.5623C3.12731 8.01645 4.07798 5.53165 5.86759 3.56528C7.65062 1.60594 10.0759 0.372271 12.6965 0.091145C18.1518 -0.489573 23.1741 1.73507 25.8063 5.89632L26.0405 6.26676C26.179 6.48583 26.1151 6.77423 25.8966 6.91582L19.9614 10.7677C19.9614 10.7677 19.5389 11.0551 19.4404 11.1271C19.0722 11.3961 18.5609 11.3601 18.235 11.0419C18.0597 10.8709 17.5612 10.3894 17.3618 10.2181C16.6326 9.59153 15.7734 9.199 14.8769 9.08267C14.4989 9.03405 14.1171 9.03318 13.743 9.08053C11.5858 9.35098 9.80374 11.0867 9.50028 13.2104C9.43098 13.6953 8.98383 14.06 8.49125 14.0142C7.96045 13.9648 7.58348 13.4886 7.65582 12.9715C8.06693 10.0324 10.5284 7.62804 13.5086 7.25435C14.0398 7.18752 14.5815 7.1884 15.1174 7.25723C16.3783 7.42078 17.5757 7.96382 18.5814 8.82804C18.642 8.88017 18.7181 8.94888 18.8009 9.02526C18.9077 9.12388 19.0692 9.13794 19.1915 9.0588L23.5381 6.2434C23.6315 6.18285 23.6537 6.05522 23.5846 5.96854C21.2073 2.99762 17.2172 1.46186 12.8965 1.92148C10.7321 2.15375 8.72643 3.17499 7.25005 4.79732C5.78001 6.41259 4.99894 8.44379 5.0506 10.5169C5.17029 15.3124 8.75144 18.7928 13.5659 18.7928C14.9349 18.7928 16.7863 18.0562 17.7807 17.1157L17.8383 17.0655C17.9139 17.0051 18.1537 16.7913 18.2996 16.6588C18.6159 16.3719 19.0895 16.3364 19.4459 16.5728C19.4459 16.5728 19.941 16.9015 19.9834 16.9291L25.8891 20.7609C26.1129 20.9061 26.1773 21.2026 26.0333 21.426L25.7993 21.7893C23.4134 25.4925 19.1446 27.7031 14.3796 27.7031L14.3795 27.7029Z" fill="url(#paint0_linear_121_82)"/>
<path d="M32.3763 13.7644C32.3763 10.1188 35.2569 7.31771 38.9169 7.31771C41.6486 7.31771 43.8254 8.82534 44.8046 10.996C44.8332 11.0593 44.8026 11.1347 44.7393 11.1613L42.5605 12.0813C42.4993 12.1079 42.4299 12.0793 42.4014 12.0201C41.7669 10.6635 40.5347 9.81887 38.976 9.79847C37.0849 9.77399 35.414 11.1511 35.0795 12.9933C34.6204 15.5108 36.4504 17.7345 38.9679 17.7345C40.6265 17.7345 41.8567 16.7471 42.4524 15.4149C42.4789 15.3537 42.5503 15.3251 42.6115 15.3516L44.8107 16.2717C44.876 16.2982 44.9066 16.3737 44.876 16.437C43.8539 18.6566 41.7955 20.2132 38.9148 20.2132C35.208 20.2111 32.3763 17.3346 32.3763 13.7644Z" fill="white"/>
<path d="M32.2335 13.8156C32.2335 10.125 35.1468 7.28724 38.8455 7.28724C41.6078 7.28724 43.8091 8.81528 44.7965 11.0125C44.825 11.0757 44.7944 11.1512 44.7291 11.1798L42.5279 12.1121C42.4667 12.1386 42.3953 12.11 42.3667 12.0488C41.7241 10.6738 40.4796 9.82105 38.9046 9.7986C36.9931 9.77412 35.3039 11.1675 34.9652 13.0322C34.5021 15.5802 36.3525 17.8325 38.8965 17.8325C40.5735 17.8325 41.8179 16.8329 42.4197 15.4844C42.4483 15.4232 42.5177 15.3926 42.5809 15.4191L44.8046 16.3514C44.8699 16.3779 44.9005 16.4555 44.8719 16.5187C43.8397 18.7669 41.7587 20.3418 38.8455 20.3418C35.0958 20.3439 32.2335 17.4306 32.2335 13.8156Z" fill="white"/>
<path d="M50.9065 17.4755C50.8555 17.6019 50.7046 17.6019 50.6556 17.4755L47.4894 7.54833C47.4649 7.47284 47.4139 7.42184 47.3384 7.42184H44.7006C44.6006 7.42184 44.5741 7.47284 44.6006 7.54833L48.7216 19.7624C48.9236 20.3908 49.148 20.9946 49.148 21.4965C49.148 22.2248 48.7461 22.7287 47.6913 22.7287H44.7516C44.6761 22.7287 44.6251 22.7797 44.6251 22.8552V24.9912C44.6251 25.0667 44.6761 25.1177 44.7516 25.1177H48.2197C50.5577 25.1177 51.3615 24.1119 52.2408 21.523L56.9412 7.55037C56.9656 7.4504 56.8902 7.42388 56.8147 7.42388H54.2258C54.1503 7.42388 54.0993 7.47488 54.0748 7.55037L50.9086 17.4775L50.9065 17.4755Z" fill="white"/>
<path d="M61.1683 19.085C61.8212 19.7379 63.3043 20.3927 64.561 20.3927C68.1802 20.3927 70.4406 17.7039 70.4406 13.7828C70.4406 9.86172 68.0537 7.17287 64.561 7.17287C62.4495 7.17287 61.2193 8.37857 61.0929 8.50506C61.0174 8.58054 60.8909 8.50506 60.8909 8.42957V2.57448C60.8909 2.499 60.8399 2.448 60.7644 2.448H58.3265C58.251 2.448 58.2 2.499 58.2 2.57448V20.0153C58.2 20.0908 58.251 20.1418 58.3265 20.1418H60.4625C60.5624 20.1418 60.6134 20.1173 60.6379 20.0153L60.8888 19.1115C60.9398 18.9851 61.0643 18.9851 61.1643 19.0871L61.1683 19.085ZM67.7273 13.7828C67.7273 16.2207 66.4706 17.9548 64.1836 17.9548C62.0476 17.9548 60.8909 16.2207 60.8909 13.7828C60.8909 11.2204 62.0476 9.63527 64.1836 9.63527C66.4706 9.63527 67.7273 11.3449 67.7273 13.7828Z" fill="white"/>
<path d="M83.8828 14.6622C83.9338 14.4357 83.9827 14.1603 83.9827 13.7829C83.9827 9.86181 81.6448 7.17295 77.8502 7.17295C74.0556 7.17295 71.7176 9.83732 71.7176 13.7829C71.7176 17.7284 74.1311 20.3928 77.8502 20.3928C80.69 20.3928 82.9525 18.9607 83.5543 16.4983V16.4738C83.5543 16.4228 83.4788 16.3738 83.4278 16.3738H80.8389C80.739 16.3738 80.688 16.4248 80.6635 16.5003C80.1861 17.4306 79.2823 17.9569 77.8481 17.9569C75.8386 17.9569 74.5554 16.5248 74.5554 14.9172C74.5554 14.8417 74.6064 14.7907 74.6819 14.7907H83.7542C83.8297 14.7907 83.8542 14.7397 83.8787 14.6642L83.8828 14.6622ZM74.686 12.6017C74.6105 12.6017 74.5595 12.5507 74.5595 12.4752C74.5595 11.3939 75.6142 9.63535 77.8522 9.63535C80.0902 9.63535 81.0695 11.2695 81.0695 12.4752C81.0695 12.5507 81.0185 12.6017 80.943 12.6017H74.686Z" fill="white"/>
<path d="M92.6532 9.68637C92.7286 9.68637 92.7796 9.63536 92.7796 9.55988V7.29741C92.7796 7.22192 92.7286 7.17092 92.6532 7.17092H91.321C90.1153 7.17092 89.2095 7.74827 88.4057 8.55411C88.3302 8.62959 88.2057 8.62959 88.1547 8.50311L87.9038 7.57282C87.8793 7.47286 87.8283 7.42185 87.7284 7.42185H85.5679C85.5169 7.42185 85.4679 7.47286 85.4679 7.54834V20.0134C85.4679 20.0888 85.5189 20.1398 85.5679 20.1398H88.0303C88.1058 20.1398 88.1568 20.0888 88.1568 20.0134V13.0015C88.1568 11.2674 89.1626 9.68433 91.1965 9.68433H92.6532V9.68637Z" fill="white"/>
<path d="M105.677 20.1397C105.753 20.1397 105.804 20.0887 105.804 20.0133V13.1279C105.804 9.91069 104.196 7.17287 100.401 7.17287C98.9693 7.17287 97.7371 7.90119 97.2597 8.52954C97.1842 8.6295 96.9822 8.6295 96.9822 8.47853V2.57448C96.9822 2.499 96.9312 2.448 96.8557 2.448H94.4178C94.3423 2.448 94.2913 2.499 94.2913 2.57448V20.0153C94.2913 20.0908 94.3423 20.1418 94.4178 20.1418H96.8557C96.9312 20.1418 96.9822 20.0908 96.9822 20.0153V13.0035C96.9822 11.2694 97.988 9.68627 100.022 9.68627C102.258 9.68627 103.088 11.4204 103.088 13.13V20.0153C103.088 20.0908 103.139 20.1418 103.215 20.1418H105.677V20.1397Z" fill="white"/>
<path d="M116.596 18.9341C116.671 18.8587 116.771 18.8831 116.822 18.9586C117.249 19.7135 118.003 20.1398 119.387 20.1398H120.392C120.468 20.1398 120.519 20.0888 120.519 20.0134V17.9529C120.519 17.8774 120.468 17.8264 120.392 17.8264H119.839C119.311 17.8264 118.96 17.4489 118.96 16.996V11.8448C118.96 8.72956 116.8 7.17092 113.332 7.17092C110.416 7.17092 107.803 8.62755 107.803 11.5939C107.803 11.6693 107.854 11.7203 107.929 11.7203H110.367C110.443 11.7203 110.494 11.6693 110.494 11.5939C110.518 10.5391 111.298 9.63332 113.334 9.63332C116.047 9.63332 116.273 10.941 116.273 11.7183C116.273 12.0202 115.996 12.4221 115.47 12.4221H112.881C109.213 12.4221 107.377 14.1807 107.377 16.3677C107.377 18.7057 108.984 20.3887 112.377 20.3887C114.513 20.3887 115.969 19.5849 116.598 18.9321L116.596 18.9341ZM112.375 17.9549C110.616 17.9549 110.063 17.0756 110.063 16.3718C110.063 15.5925 110.49 14.6132 112.954 14.6132H116.145C116.22 14.6132 116.271 14.6642 116.271 14.7397V14.9151C116.247 16.3228 115.19 17.9549 112.377 17.9549H112.375Z" fill="white"/>
<path d="M125.986 17.4754C125.935 17.6019 125.784 17.6019 125.735 17.4754L122.569 7.57484C122.545 7.49936 122.494 7.42387 122.418 7.42387H119.829C119.729 7.42387 119.654 7.47487 119.678 7.57484L123.901 20.0154C123.926 20.0909 123.977 20.1419 124.052 20.1419H127.671C127.747 20.1419 127.798 20.0909 127.822 20.0154L132.019 7.57484C132.043 7.47487 131.968 7.42387 131.894 7.42387H129.33C129.255 7.42387 129.179 7.49936 129.155 7.57484L125.988 17.4754H125.986Z" fill="white"/>
<path d="M144.156 14.6622C144.207 14.4357 144.256 14.1603 144.256 13.7829C144.256 9.86181 141.918 7.17295 138.123 7.17295C134.328 7.17295 131.99 9.83732 131.99 13.7829C131.99 17.7284 134.404 20.3928 138.123 20.3928C140.963 20.3928 143.225 18.9607 143.827 16.4983V16.4738C143.827 16.4228 143.752 16.3738 143.701 16.3738H141.112C141.012 16.3738 140.961 16.4248 140.936 16.5003C140.459 17.4306 139.555 17.9569 138.121 17.9569C136.111 17.9569 134.828 16.5248 134.828 14.9172C134.828 14.8417 134.879 14.7907 134.955 14.7907H144.027C144.103 14.7907 144.127 14.7397 144.154 14.6642L144.156 14.6622ZM134.957 12.6017C134.881 12.6017 134.83 12.5507 134.83 12.4752C134.83 11.3939 135.885 9.63535 138.123 9.63535C140.361 9.63535 141.34 11.2695 141.34 12.4752C141.34 12.5507 141.289 12.6017 141.214 12.6017H134.957Z" fill="white"/>
<path d="M148.452 8.52962C148.376 8.6051 148.225 8.65611 148.174 8.50514L147.924 7.55037C147.899 7.47489 147.848 7.42389 147.748 7.42389H145.612C145.537 7.42389 145.486 7.47489 145.486 7.55037V20.0154C145.486 20.0909 145.537 20.1419 145.612 20.1419H148.05C148.125 20.1419 148.176 20.0909 148.176 20.0154V13.0036C148.176 11.2695 149.182 9.63535 151.218 9.63535C153.454 9.63535 154.285 11.4204 154.285 13.128V20.0133C154.285 20.0888 154.336 20.1398 154.411 20.1398H156.873C156.949 20.1398 157 20.0888 157 20.0133V13.128C157 9.91077 155.392 7.17295 151.598 7.17295C150.241 7.17295 148.958 7.85231 148.456 8.52962H148.452Z" fill="white"/>
<defs>
<linearGradient id="paint0_linear_121_82" x1="18.594" y1="30.3147" x2="10.5564" y2="1.99228" gradientUnits="userSpaceOnUse">
<stop offset="0.177" stop-color="#F413F7"/>
<stop offset="0.528" stop-color="#722EF2"/>
<stop offset="0.849" stop-color="#0047EE"/>
</linearGradient>
</defs>
</svg>
